<svg xmlns="http://www.w3.org/2000/svg" version="1.1" xmlns:xlink="http://www.w3.org/1999/xlink" xmlns:svgjs="http://svgjs.com/svgjs" width="1440" height="560" preserveAspectRatio="none" viewBox="0 0 1440 560"><g mask="url(&quot;#SvgjsMask1006&quot;)" fill="none"><rect width="1440" height="560" x="0" y="0" fill="rgba(71, 14, 14, 1)"></rect><path d="M1325 459L1324 725" stroke-width="10" stroke="url(#SvgjsLinearGradient1007)" stroke-linecap="round" class="Down"></path><path d="M247 176L246 -99" stroke-width="6" stroke="url(#SvgjsLinearGradient1008)" stroke-linecap="round" class="Up"></path><path d="M1012 461L1011 69" stroke-width="10" stroke="url(#SvgjsLinearGradient1007)" stroke-linecap="round" class="Down"></path><path d="M97 59L96 378" stroke-width="8" stroke="url(#SvgjsLinearGradient1007)" stroke-linecap="round" class="Down"></path><path d="M895 305L894 709" stroke-width="8" stroke="url(#SvgjsLinearGradient1008)" stroke-linecap="round" class="Up"></path><path d="M286 69L285 -315" stroke-width="10" stroke="url(#SvgjsLinearGradient1008)" stroke-linecap="round" class="Up"></path><path d="M566 85L565 374" stroke-width="8" stroke="url(#SvgjsLinearGradient1007)" stroke-linecap="round" class="Down"></path><path d="M1103 151L1102 -121" stroke-width="8" stroke="url(#SvgjsLinearGradient1007)" stroke-linecap="round" class="Down"></path><path d="M1226 112L1225 417" stroke-width="6" stroke="url(#SvgjsLinearGradient1007)" stroke-linecap="round" class="Down"></path><path d="M1298 244L1297 65" stroke-width="6" stroke="url(#SvgjsLinearGradient1008)" stroke-linecap="round" class="Up"></path><path d="M1020 522L1019 843" stroke-width="8" stroke="url(#SvgjsLinearGradient1008)" stroke-linecap="round" class="Up"></path><path d="M35 120L34 468" stroke-width="8" stroke="url(#SvgjsLinearGradient1008)" stroke-linecap="round" class="Up"></path><path d="M477 222L476 419" stroke-width="10" stroke="url(#SvgjsLinearGradient1008)" stroke-linecap="round" class="Up"></path><path d="M27 391L26 115" stroke-width="8" stroke="url(#SvgjsLinearGradient1008)" stroke-linecap="round" class="Up"></path><path d="M1026 64L1025 371" stroke-width="8" stroke="url(#SvgjsLinearGradient1007)" stroke-linecap="round" class="Down"></path><path d="M1188 341L1187 735" stroke-width="6" stroke="url(#SvgjsLinearGradient1008)" stroke-linecap="round" class="Up"></path><path d="M349 468L348 105" stroke-width="10" stroke="url(#SvgjsLinearGradient1008)" stroke-linecap="round" class="Up"></path><path d="M399 442L398 295" stroke-width="8" stroke="url(#SvgjsLinearGradient1008)" stroke-linecap="round" class="Up"></path><path d="M173 496L172 741" stroke-width="10" stroke="url(#SvgjsLinearGradient1007)" stroke-linecap="round" class="Down"></path><path d="M1433 213L1432 37" stroke-width="8" stroke="url(#SvgjsLinearGradient1007)" stroke-linecap="round" class="Down"></path><path d="M794 255L793 104" stroke-width="10" stroke="url(#SvgjsLinearGradient1008)" stroke-linecap="round" class="Up"></path><path d="M634 427L633 184" stroke-width="6" stroke="url(#SvgjsLinearGradient1007)" stroke-linecap="round" class="Down"></path><path d="M899 346L898 77" stroke-width="8" stroke="url(#SvgjsLinearGradient1008)" stroke-linecap="round" class="Up"></path><path d="M675 54L674 -117" stroke-width="6" stroke="url(#SvgjsLinearGradient1008)" stroke-linecap="round" class="Up"></path><path d="M203 427L202 204" stroke-width="10" stroke="url(#SvgjsLinearGradient1008)" stroke-linecap="round" class="Up"></path><path d="M500 386L499 745" stroke-width="8" stroke="url(#SvgjsLinearGradient1007)" stroke-linecap="round" class="Down"></path><path d="M152 494L151 242" stroke-width="8" stroke="url(#SvgjsLinearGradient1007)" stroke-linecap="round" class="Down"></path><path d="M226 499L225 884" stroke-width="6" stroke="url(#SvgjsLinearGradient1007)" stroke-linecap="round" class="Down"></path><path d="M239 306L238 553" stroke-width="8" stroke="url(#SvgjsLinearGradient1007)" stroke-linecap="round" class="Down"></path><path d="M552 172L551 -39" stroke-width="6" stroke="url(#SvgjsLinearGradient1008)" stroke-linecap="round" class="Up"></path><path d="M1426 423L1425 38" stroke-width="10" stroke="url(#SvgjsLinearGradient1008)" stroke-linecap="round" class="Up"></path><path d="M1151 516L1150 320" stroke-width="6" stroke="url(#SvgjsLinearGradient1007)" stroke-linecap="round" class="Down"></path><path d="M532 48L531 238" stroke-width="10" stroke="url(#SvgjsLinearGradient1007)" stroke-linecap="round" class="Down"></path><path d="M665 377L664 773" stroke-width="6" stroke="url(#SvgjsLinearGradient1007)" stroke-linecap="round" class="Down"></path><path d="M1186 486L1185 693" stroke-width="10" stroke="url(#SvgjsLinearGradient1008)" stroke-linecap="round" class="Up"></path><path d="M422 222L421 71" stroke-width="10" stroke="url(#SvgjsLinearGradient1007)" stroke-linecap="round" class="Down"></path></g><defs><mask id="SvgjsMask1006"><rect width="1440" height="560" fill="#ffffff"></rect></mask><linearGradient x1="0%" y1="0%" x2="0%" y2="100%" id="SvgjsLinearGradient1007"><stop stop-color="rgba(142, 28, 28, 0)" offset="0"></stop><stop stop-color="rgba(142, 28, 28, 1)" offset="1"></stop></linearGradient><linearGradient x1="0%" y1="100%" x2="0%" y2="0%" id="SvgjsLinearGradient1008"><stop stop-color="rgba(142, 28, 28, 0)" offset="0"></stop><stop stop-color="rgba(142, 28, 28, 1)" offset="1"></stop></linearGradient></defs></svg>